# xmcd
#
# Track frame offsets: 
#        150
#        14262
#        32927
#        45602
#        68852
#        74425
#        106390
#        122350
#        133685
#        149055
#        153715
#        175347
#        201325
#
# Disc length: 2811 seconds
#
# Revision: 4
# Processed by: cddbd v1.5.2PL0 Copyright (c) Steve Scherf et al.
# Submitted via: ExactAudioCopyFreeDBPlugin 1.0
#
DISCID=c60af90d
DTITLE=S.E.N.S. - Masala Tea Waltz
DYEAR=1988
DGENRE=Musical
TTITLE0=茶之圓舞曲 Masala Tea Waltz
TTITLE1=阿拉伯樂土 Happy Arabia
TTITLE2=越過 Beyond
TTITLE3=希帕洛斯之風 The Wind of Hippalos
TTITLE4=羅盤 Compass
TTITLE5=吟遊詩人 Troubadour
TTITLE6=詹比亞舞曲 Jambia Dance
TTITLE7=水畔淨土 At Ease At The Water Side
TTITLE8=絲鈴 Silk Veils
TTITLE9=西登 Shrine
TTITLE10=色彩 Color
TTITLE11=航行 Sailing
TTITLE12=歸航之後 Masala Tea Waltz (After The Voyage)
EXTD=
EXTT0=
EXTT1=
EXTT2=
EXTT3=
EXTT4=
EXTT5=
EXTT6=
EXTT7=
EXTT8=
EXTT9=
EXTT10=
EXTT11=
EXTT12=
PLAYORDER=
